<?xml version="1.0" standalone="no"?>
<!DOCTYPE svg PUBLIC "-//W3C//DTD SVG 20010904//EN"
 "http://www.w3.org/TR/2001/REC-SVG-20010904/DTD/svg10.dtd">
<svg version="1.0" xmlns="http://www.w3.org/2000/svg"
 width="264.000000pt" height="264.000000pt" viewBox="0 0 264.000000 264.000000"
 preserveAspectRatio="xMidYMid meet">
<metadata>
Created by potrace 1.14, written by Peter Selinger 2001-2017
</metadata>
<g transform="translate(0.000000,264.000000) scale(0.100000,-0.100000)"
fill="#000000" stroke="none">
<path d="M1143 2559 c-24 -11 -43 -24 -43 -30 0 -6 -4 -7 -10 -4 -5 3 -10 2
-10 -4 0 -5 -9 -13 -20 -16 -11 -4 -18 -10 -15 -15 3 -5 -4 -12 -16 -15 -11
-4 -18 -9 -16 -12 3 -3 -8 -19 -24 -35 -16 -17 -29 -37 -29 -44 0 -8 -5 -14
-11 -14 -5 0 -7 -5 -4 -10 3 -6 -1 -13 -9 -16 -9 -3 -13 -10 -10 -15 3 -5 1
-9 -5 -9 -6 0 -8 -6 -5 -14 3 -7 -2 -16 -11 -20 -9 -3 -13 -11 -10 -16 4 -6 2
-16 -3 -23 -6 -7 -12 -24 -14 -37 -2 -14 -6 -29 -9 -35 -4 -5 -5 -18 -3 -29 1
-11 -15 -36 -42 -62 -24 -25 -44 -42 -44 -40 0 3 -18 -13 -40 -35 -22 -22 -40
-42 -40 -45 0 -2 -8 -12 -19 -23 -10 -10 -23 -26 -27 -34 -5 -8 -24 -17 -42
-20 -18 -3 -44 -13 -58 -21 -13 -9 -24 -14 -24 -11 0 3 -17 -4 -37 -15 -21
-11 -46 -20 -55 -20 -10 0 -18 -4 -18 -9 0 -5 -8 -8 -17 -6 -10 1 -22 0 -28
-4 -5 -3 -19 -7 -30 -9 -11 -1 -29 -5 -40 -7 -11 -2 -24 -4 -28 -4 -5 -1 -6
-5 -3 -10 3 -5 0 -11 -8 -14 -8 -3 -13 -14 -11 -24 2 -10 4 -21 4 -26 3 -27
116 -106 144 -99 4 1 7 -3 7 -9 0 -5 4 -8 9 -4 5 3 13 0 17 -7 4 -7 4 -10 -1
-6 -13 12 -135 -89 -135 -112 0 -6 -5 -10 -11 -10 -5 0 -7 -4 -4 -10 3 -5 2
-10 -3 -10 -5 0 -12 -8 -16 -17 -3 -10 -14 -38 -24 -63 -18 -44 -18 -46 0 -83
18 -36 60 -63 79 -51 5 3 9 -1 9 -8 0 -8 3 -9 8 -3 4 6 14 12 22 14 55 13 80
23 74 32 -3 5 1 9 9 9 8 0 18 -7 21 -16 4 -10 2 -13 -6 -8 -7 5 -8 3 -2 -7 9
-15 9 -14 17 -79 3 -25 10 -57 16 -71 5 -15 7 -30 4 -33 -4 -3 -1 -6 5 -6 7 0
12 -5 12 -12 0 -19 43 -108 52 -108 4 0 8 -6 8 -13 0 -16 125 -148 133 -140 4
3 9 -2 13 -11 3 -9 12 -16 20 -16 8 0 14 -4 14 -10 0 -5 7 -10 15 -10 9 0 18
-7 22 -16 3 -8 12 -13 19 -10 8 3 14 2 14 -2 0 -5 79 -47 110 -58 3 -1 15 -5
27 -9 12 -4 25 -16 29 -28 9 -30 13 -97 5 -97 -4 0 -7 -16 -6 -35 1 -19 -1
-35 -5 -35 -4 0 -8 -6 -7 -12 1 -35 -5 -46 -28 -52 -23 -6 -132 -108 -195
-183 -28 -33 -30 -64 -6 -88 14 -14 19 -15 33 -3 9 7 19 11 22 8 3 -3 7 5 9
17 2 12 14 29 28 38 14 9 22 21 18 27 -4 6 -3 8 3 5 5 -3 33 18 61 48 47 51
77 61 52 18 -18 -32 -40 -94 -42 -120 -1 -7 -4 -13 -8 -13 -4 0 -7 -7 -7 -15
0 -8 4 -15 9 -15 4 0 8 -7 8 -15 0 -10 10 -15 29 -15 27 0 41 17 45 55 1 6 3
12 6 15 6 6 30 69 34 88 1 7 8 18 14 24 9 9 12 8 12 -4 0 -9 7 -18 15 -22 8
-3 15 -12 15 -21 0 -8 8 -15 17 -15 9 0 14 -3 10 -6 -9 -10 20 -35 47 -40 17
-3 28 3 40 21 9 14 12 25 6 25 -5 0 -10 7 -10 15 0 8 -4 15 -10 15 -5 0 -10 7
-10 17 0 9 -3 13 -7 10 -7 -8 -43 43 -64 90 -8 18 -18 33 -22 33 -5 0 -5 4 -2
10 3 5 -3 10 -15 10 -19 0 -20 4 -14 43 4 23 7 49 8 57 1 9 5 21 9 27 4 6 3
14 -3 18 -7 4 -7 12 0 25 7 13 6 20 -3 23 -6 3 0 6 15 6 15 1 30 -4 34 -10 4
-8 9 -7 15 2 5 8 9 9 9 4 0 -6 10 -12 23 -13 37 -4 51 -7 65 -15 7 -5 12 -3
12 5 0 10 2 10 9 -1 6 -8 19 -12 35 -9 15 3 28 2 31 -1 2 -4 18 -6 34 -5 17 1
31 -2 31 -7 0 -5 5 -8 12 -7 7 2 13 -6 14 -17 2 -11 4 -35 6 -52 2 -18 6 -33
10 -33 4 0 5 -9 3 -20 -2 -11 0 -20 5 -20 5 0 8 -8 8 -17 -1 -10 2 -27 5 -38
5 -14 -1 -29 -18 -48 -14 -15 -23 -27 -20 -27 3 0 1 -6 -5 -12 -41 -49 -49
-62 -44 -69 3 -5 0 -9 -5 -9 -16 0 -13 -49 3 -66 11 -11 21 -12 41 -4 14 5 24
14 21 19 -4 5 -2 11 3 13 5 1 11 9 13 17 5 20 47 65 55 58 3 -4 3 -7 -1 -7 -4
0 -1 -10 6 -22 6 -13 12 -31 13 -41 1 -11 7 -22 14 -27 7 -4 13 -11 13 -16 1
-22 12 -35 24 -30 8 3 14 1 14 -4 0 -14 27 -12 36 2 14 22 12 68 -3 68 -8 0
-11 5 -8 10 3 6 1 10 -6 10 -6 0 -9 8 -6 20 3 11 1 20 -5 20 -5 0 -8 6 -6 12
3 7 -2 19 -9 27 -12 11 -12 15 -1 22 8 5 16 2 21 -6 4 -8 13 -15 18 -15 6 0
17 -6 24 -12 34 -31 43 -36 49 -31 3 4 6 1 6 -5 0 -7 9 -12 20 -12 11 0 20 5
20 11 0 6 6 9 14 6 8 -3 13 0 12 7 -3 20 -60 91 -75 94 -8 2 -22 12 -31 22
-20 23 -86 34 -94 17 -2 -7 -5 -4 -5 6 -1 9 -5 17 -10 17 -5 0 -12 7 -15 16
-3 8 -2 12 4 9 6 -3 10 -1 10 4 0 6 -4 11 -10 11 -5 0 -6 7 -3 17 4 10 2 14
-4 10 -7 -5 -9 1 -5 15 3 11 1 19 -4 16 -5 -4 -9 6 -10 20 0 15 -2 36 -5 46
-3 14 3 21 24 27 15 4 27 4 27 0 0 -9 67 -7 76 2 4 4 13 2 21 -4 7 -6 13 -7
13 -3 0 5 15 10 33 10 65 3 117 9 117 14 0 3 15 7 32 8 18 2 48 12 66 22 18
11 38 18 43 15 5 -4 9 1 9 10 0 9 4 14 8 11 5 -3 18 3 29 14 12 10 23 16 26
14 3 -3 8 4 12 15 3 12 11 19 16 16 5 -4 9 -2 9 3 0 6 24 35 53 66 28 30 57
61 62 68 6 7 27 35 49 61 21 27 36 51 32 54 -3 3 3 13 14 20 11 8 18 18 15 23
-3 5 3 13 12 19 10 6 14 11 10 11 -5 0 1 13 12 29 11 15 18 31 14 35 -3 3 -1
6 6 6 8 0 11 7 7 15 -3 8 -1 15 3 15 11 0 33 60 23 60 -4 0 -2 4 3 8 17 12 35
72 22 72 -9 0 -9 2 0 8 6 4 15 21 19 37 10 47 12 235 1 235 -5 0 -7 6 -4 13 7
19 -50 147 -66 147 -4 0 -5 5 -2 10 3 6 0 10 -8 10 -8 0 -18 7 -21 16 -3 8
-10 12 -16 9 -5 -3 -10 2 -11 12 0 11 -3 13 -6 5 -4 -10 -8 -10 -19 -1 -11 9
-14 8 -14 -1 0 -8 -3 -10 -7 -7 -3 4 -13 -2 -20 -13 -8 -11 -18 -18 -23 -15
-4 3 -11 -2 -14 -11 -3 -8 -10 -13 -15 -9 -5 3 -16 -4 -24 -15 -7 -11 -17 -17
-20 -13 -4 3 -7 1 -7 -5 0 -7 -6 -12 -14 -12 -7 0 -26 -13 -43 -28 -16 -16
-34 -27 -41 -24 -7 2 -12 -1 -12 -8 0 -6 -4 -9 -9 -5 -6 3 -14 -3 -20 -12 -5
-10 -13 -17 -18 -17 -4 1 -19 -3 -33 -8 -33 -12 -120 -18 -120 -7 0 5 -6 6
-14 3 -13 -5 -70 47 -66 61 1 4 -3 11 -10 15 -6 4 -12 17 -13 28 -1 12 -5 22
-9 22 -4 0 -8 14 -8 30 0 17 -4 30 -8 30 -5 0 -9 6 -10 13 -2 22 -7 42 -16 56
-7 10 -5 12 5 6 8 -5 6 1 -4 13 -11 11 -16 26 -12 31 3 6 1 11 -4 11 -6 0 -10
3 -10 8 3 13 -25 72 -34 72 -4 0 -6 4 -3 9 3 5 -1 14 -9 21 -8 7 -15 16 -15
21 0 4 -18 26 -39 48 l-40 40 25 23 c13 13 24 26 24 31 0 4 8 16 18 26 23 27
42 50 42 53 1 17 14 48 21 48 4 0 6 9 4 20 -2 11 0 20 5 20 4 0 7 11 5 25 -1
14 2 28 7 31 5 4 5 10 0 17 -5 7 -10 19 -10 27 -2 38 -24 89 -50 115 -47 48
-66 57 -121 60 -45 3 -64 -1 -99 -22 -24 -13 -46 -22 -49 -19 -4 3 -2 6 3 6 4
0 -1 7 -14 15 -28 20 -93 26 -111 11 -12 -8 -13 -8 -7 2 9 14 11 15 -41 -9z
m-140 -2244 c-3 -9 -8 -14 -10 -11 -3 3 -2 9 2 15 9 16 15 13 8 -4z"/>
</g>
</svg>
